<?xml version="1.0" encoding="utf-8"?>
<?xml-stylesheet type="text/xsl" href="rss1.xsl"?>
<rss version="2.0" xmlns:atom="http://www.w3.org/2005/Atom" xmlns:content="http://purl.org/rss/1.0/modules/content/" xmlns:dc="http://purl.org/dc/elements/1.1/" xmlns:media="http://search.yahoo.com/mrss/">
<channel>
 <title>Getty</title>
 <link>http://www.gettyimg.com/</link>
 <atom:link href="http://www.gettyimg.com/" rel="self" type="application/rss+xml" />

 
                <item>
                <title><![CDATA[【PRORES HD】Ke$ha - Take it Off (Master ProRes AAC-1080p-by-Littledobr)]]></title>
                <link><![CDATA[https://sharemania.us/threads/ke-ha-take-it-off-master-prores-aac-1080p-by-littledobr.238075/]]></link>
                <description><![CDATA[<article>
<blockquote class="messageText SelectQuoteContainer ugc baseHtml">
<iframe data-s9e-mediaembed="imgur" allowfullscreen="" loading="lazy" onload="var c=new MessageChannel;c.port1.onmessage=function(e){var d=e.data.split(' ');style.height=d[0]+'px';style.width=d[1]+'px'};contentWindow.postMessage('s9e:init','https://s9e.github.io',[c.port2])" scrolling="no" style="border: 0px; height: 453px; max-width: 100%; width: 540px;" src="https://s9e.github.io/iframe/2/imgur.min.html#a/wFVafUS"></iframe><br>
<br>
<br>
<br>
<a href="https://terabox.com/s/1F8XI16f4X_LbBeMskI4YeA" target="_blank" class="externalLink" rel="nofollow">https://terabox.com/s/1F8XI16f4X_LbBeMskI4YeA</a>
<div class="messageTextEndMarker">&nbsp;</div>
</blockquote>
</article>]]></description>
                <author><![CDATA[littledobr]]></author>
                </item>

                
                <item>
                <title><![CDATA[【Singles (lossless)】FLAC - Dead or Alive Still Spinning Singles Collection 1983-2021 (27CD Box Set)]]></title>
                <link><![CDATA[https://sharemania.us/threads/dead-or-alive-still-spinning-singles-collection-1983-2021-27cd-box-set.238074/]]></link>
                <description><![CDATA[<article>
<blockquote class="messageText SelectQuoteContainer ugc baseHtml">
Flac<br>
<a href="https://mega.nz/folder/m8MnTIQQ#GQJCd1D_Lj8ExB0VrnHdWQ" target="_blank" class="externalLink" rel="nofollow">https://mega.nz/folder/m8MnTIQQ#GQJCd1D_Lj8ExB0VrnHdWQ</a><br>
<br>
Aiff<br>
<a href="https://mega.nz/folder/SwFBiIQA#amU-43zR68p4UR2nxjX1pw" target="_blank" class="externalLink" rel="nofollow">https://mega.nz/folder/SwFBiIQA#amU-43zR68p4UR2nxjX1pw</a><br>
<br>
<a href="https://www.discogs.com/release/28954156-Dead-Or-Alive-Still-Spinnin-The-Singles-Collection-1983-2021?fbclid=IwAR0I6kOSKwO0czWJyEq5sIrLJcauOWVZ7JZwJvO0UePeOgs8_bVPkn5akJE" target="_blank" class="externalLink" rel="nofollow">https://www.discogs.com/release/289...WJyEq5sIrLJcauOWVZ7JZwJvO0UePeOgs8_bVPkn5akJE</a>
<div class="messageTextEndMarker">&nbsp;</div>
</blockquote>
</article>]]></description>
                <author><![CDATA[Mamochan]]></author>
                </item>

                
                <item>
                <title><![CDATA[【Cinema Center】SERIES - Silly Sundays - Season 1 - 1080p HBO Max WEB-DL DD5.1 x264-LAZY]]></title>
                <link><![CDATA[https://sharemania.us/threads/silly-sundays-season-1-1080p-hbo-max-web-dl-dd5-1-x264-lazy.238076/]]></link>
                <description><![CDATA[<article>
<blockquote class="messageText SelectQuoteContainer ugc baseHtml">
Silly Sundays:<img src="https://static.wikia.nocookie.net/cartoonnetwork/images/0/00/Silly-Sundays_1000x600.jpg/revision/latest?cb=20211208144900" class="bbCodeImage LbImage" alt="[​IMG]" data-url="https://static.wikia.nocookie.net/cartoonnetwork/images/0/00/Silly-Sundays_1000x600.jpg/revision/latest?cb=20211208144900" style=""> <br>
<br>
<div class="bbCodeBlock bbCodeQuote">
<aside>
<blockquote class="quoteContainer"><div class="quote"><i><b>Synopsis:</b></i><br>
In this feel-good comedy series, Sonia, Hugo, and Mel create full-of-heart memories with Mom, Dad, and Granny on those playful days spent with family and friends.</div><div class="quoteExpand">Click to expand...</div></blockquote>
</aside>
</div>
<div class="ToggleTriggerAnchor bbCodeSpoilerContainer">
<button type="button" class="button bbCodeSpoilerButton ToggleTrigger Tooltip JsOnly" data-target="> .SpoilerTarget"><span>Spoiler: <span class="SpoilerTitle">MediaInfo</span></span></button>
<div class="SpoilerTarget bbCodeSpoilerText">General<br>
Unique ID : 281726663019093616639784047837739582547 (0xD3F294E6A04E44534DDB9559AFFD8453)<br>
Complete name : Silly.Sundays.S01E01.Broken.Ducky.1080p.HMAX.WEB-DL.DD5.1.x264-LAZY.mkv<br>
Format : Matroska<br>
Format version : Version 4<br>
File size : 433 MiB<br>
Duration : 7 min 1 s<br>
Overall bit rate mode : Variable<br>
Overall bit rate : 8 623 kb/s<br>
Encoded date : UTC 2024-02-19 18:55:40<br>
Writing application : mkvmerge v82.0 ('I'm The President') 64-bit<br>
Writing library : libebml v1.4.5 + libmatroska v1.7.1<br>
<br>
Video<br>
ID : 1<br>
Format : AVC<br>
Format/Info : Advanced Video Codec<br>
Format profile : High@L4<br>
Format settings : CABAC / 4 Ref Frames<br>
Format settings, CABAC : Yes<br>
Format settings, Reference frames : 4 frames<br>
Codec ID : V_MPEG4/ISO/AVC<br>
Duration : 7 min 1 s<br>
Bit rate mode : Variable<br>
Bit rate : 8 250 kb/s<br>
Maximum bit rate : 12.4 Mb/s<br>
Width : 1 920 pixels<br>
Height : 1 080 pixels<br>
Display aspect ratio : 16:9<br>
Frame rate mode : Constant<br>
Frame rate : 29.970 (30000/1001) FPS<br>
Color space : YUV<br>
Chroma subsampling : 4:2:0<br>
Bit depth : 8 bits<br>
Scan type : Progressive<br>
Bits/(Pixel*Frame) : 0.133<br>
Stream size : 414 MiB (96%)<br>
Writing library : x264 core 157 r2965 861cec4<br>
Encoding settings : cabac=1 / ref=4 / deblock=1:0:0 / analyse=0x3:0x113 / me=hex / subme=7 / psy=1 / psy_rd=1.00:0.00 / mixed_ref=1 / me_range=16 / chroma_me=1 / trellis=1 / 8x8dct=1 / cqm=0 / deadzone=21,11 / fast_pskip=1 / chroma_qp_offset=-2 / threads=34 / lookahead_threads=5 / sliced_threads=0 / nr=0 / decimate=1 / interlaced=0 / bluray_compat=0 / constrained_intra=0 / bframes=3 / b_pyramid=2 / b_adapt=1 / b_bias=0 / direct=1 / weightb=1 / open_gop=0 / weightp=2 / keyint=120 / keyint_min=120 / scenecut=40 / intra_refresh=0 / rc_lookahead=40 / rc=2pass / mbtree=1 / bitrate=8250 / ratetol=1.0 / qcomp=0.60 / qpmin=0 / qpmax=69 / qpstep=4 / cplxblur=20.0 / qblur=0.5 / vbv_maxrate=12375 / vbv_bufsize=6187 / nal_hrd=vbr / filler=0 / ip_ratio=1.40 / aq=1:1.00<br>
Default : Yes<br>
Forced : No<br>
Color range : Limited<br>
Color primaries : BT.709<br>
Transfer characteristics : BT.709<br>
Matrix coefficients : BT.709<br>
<br>
Audio<br>
ID : 2<br>
Format : AC-3<br>
Format/Info : Audio Coding 3<br>
Commercial name : Dolby Digital<br>
Codec ID : A_AC3<br>
Duration : 7 min 1 s<br>
Bit rate mode : Constant<br>
Bit rate : 384 kb/s<br>
Channel(s) : 6 channels<br>
Channel layout : L R C LFE Ls Rs<br>
Sampling rate : 48.0 kHz<br>
Frame rate : 31.250 FPS (1536 SPF)<br>
Compression mode : Lossy<br>
Stream size : 19.3 MiB (4%)<br>
Language : English<br>
Service kind : Complete Main<br>
Default : Yes<br>
Forced : No<br>
<br>
Menu<br>
00:00:01.000 : en:Intro<br>
00:00:12.413 : en:Content<br>
00:07:01.000 : en:Credits</div>
</div><br>
Screenshots:<br>
<img src="https://ptpimg.me/m9x7c4.jpg" class="bbCodeImage LbImage" alt="[​IMG]" data-url="https://ptpimg.me/m9x7c4.jpg" style=""> <br>
<div class="bbCodeBlock bbCodeVfcHH HiddenContent">
<div class="attribution type">Hidden Content:</div>
<blockquote>You must either reply or click 'Like' to see the hidden information contained here.</blockquote>
</div>
<div class="messageTextEndMarker">&nbsp;</div>
</blockquote>
</article>]]></description>
                <author><![CDATA[LazyRips]]></author>
                </item>

                </channel></rss>